<?xml version="1.0" standalone="no"?>
<!DOCTYPE svg PUBLIC "-//W3C//DTD SVG 20010904//EN"
 "http://www.w3.org/TR/2001/REC-SVG-20010904/DTD/svg10.dtd">
<svg version="1.0" xmlns="http://www.w3.org/2000/svg"
 width="160.000000pt" height="160.000000pt" viewBox="0 0 160.000000 160.000000"
 preserveAspectRatio="xMidYMid meet">
<metadata>
Created by potrace 1.14, written by Peter Selinger 2001-2017
</metadata>
<g transform="translate(0.000000,160.000000) scale(0.100000,-0.100000)"
fill="#000000" stroke="none">
<path d="M906 1379 c-96 -29 -162 -94 -177 -173 -14 -72 14 -145 114 -295 49
-74 95 -140 102 -148 18 -18 37 -110 27 -131 -10 -19 -8 -94 2 -111 4 -6 30
-11 58 -11 l51 0 -25 -32 c-19 -25 -33 -32 -65 -35 -22 -2 -60 -10 -83 -18
-58 -20 -70 -19 -67 6 4 35 -19 32 -34 -4 -13 -32 -16 -34 -46 -25 -19 5 -33
15 -33 24 0 17 -22 14 -27 -3 -5 -14 34 -36 67 -38 22 -1 25 -6 26 -41 1 -56
14 -104 27 -104 24 1 67 49 67 75 0 14 5 25 12 25 6 0 9 3 5 6 -3 4 -22 -3
-42 -14 -38 -23 -41 -20 -35 33 2 24 4 26 22 29 7 1 39 8 71 15 32 7 66 9 75
5 9 -4 20 -8 25 -9 4 -2 8 -3 10 -5 1 -1 26 -4 55 -6 44 -3 52 -1 53 14 5 87
6 83 -25 89 -29 6 -29 7 -7 15 24 8 24 12 9 166 -2 18 0 36 4 38 5 3 6 9 3 14
-3 5 1 14 8 22 12 12 58 78 133 193 18 28 37 55 41 60 30 36 63 142 56 185 -5
39 -24 83 -47 109 -78 88 -266 125 -410 80z"/>
<path d="M428 845 c4 -33 2 -35 -25 -35 -49 0 -131 -29 -148 -53 -20 -28 -19
-53 1 -61 14 -5 15 -4 5 8 -31 37 15 76 106 91 58 9 68 0 42 -36 -26 -37 -59
-59 -93 -63 -41 -4 -44 -17 -3 -14 20 1 37 6 37 10 0 4 6 8 13 8 19 0 87 67
87 85 0 43 93 -4 120 -59 36 -76 7 -201 -55 -230 -43 -21 -44 -21 -40 12 2 15
4 32 4 37 1 6 5 4 10 -4 7 -10 10 -11 16 0 5 7 0 19 -13 29 -19 15 -20 25 -16
85 2 37 6 80 9 96 6 36 -22 42 -29 7 -9 -39 -15 -101 -16 -145 0 -30 -4 -43
-14 -43 -8 0 -18 -12 -24 -27 -20 -61 73 -95 138 -51 75 51 101 185 50 259
-14 20 -27 37 -30 37 -3 0 -18 5 -33 11 -16 6 -37 11 -49 11 -12 0 -18 5 -15
13 7 18 -10 57 -26 57 -9 0 -12 -10 -9 -35z m16 -318 c2 -14 7 -31 10 -36 3
-5 -3 -7 -14 -4 -25 7 -38 52 -19 64 17 10 17 10 23 -24z"/>
<path d="M784 748 c-4 -6 -8 -26 -9 -44 -3 -36 -11 -54 -26 -54 -6 0 -8 17 -3
46 l7 46 -34 -7 c-36 -7 -78 -30 -80 -43 0 -4 -2 -15 -4 -24 -5 -25 24 -46 36
-27 5 8 9 10 9 5 0 -6 6 -1 14 9 13 18 14 18 20 -2 9 -30 34 -36 48 -13 9 13
16 16 24 9 9 -7 20 -7 34 1 12 6 23 10 26 8 9 -10 -20 -131 -38 -153 -18 -23
-57 -35 -59 -17 0 4 -2 15 -4 26 -4 19 20 48 65 78 14 9 19 17 13 17 -21 1
-93 -70 -93 -91 0 -33 18 -55 42 -53 13 1 28 3 35 4 15 1 49 60 58 100 7 34
19 40 33 15 5 -10 15 -14 21 -10 15 10 -4 36 -25 36 -10 0 -13 16 -11 65 1 48
-2 66 -12 70 -18 7 -18 6 -34 -40 -20 -58 -36 -56 -31 4 5 49 -5 66 -22 39z
m-85 -62 c-14 -29 -29 -34 -29 -10 0 15 31 47 38 39 1 -1 -3 -14 -9 -29z"/>
<path d="M643 528 c-6 -7 -22 -36 -37 -65 -22 -45 -30 -52 -58 -55 -34 -3 -56
-38 -24 -38 9 0 15 5 14 12 -2 6 5 14 16 16 16 3 18 0 11 -25 -4 -15 -9 -39
-11 -52 -3 -14 -7 -28 -10 -32 -2 -4 -1 -14 2 -22 8 -21 34 -10 34 14 0 43 22
119 35 119 11 0 14 -21 14 -90 0 -50 3 -95 6 -100 17 -27 25 -2 25 76 0 64 3
85 13 82 6 -3 12 -11 12 -19 0 -8 6 -18 13 -22 6 -4 12 -17 12 -28 0 -16 6
-20 27 -17 14 2 29 10 31 18 5 13 3 13 -11 1 -18 -14 -19 -14 -21 34 -1 13 -8
19 -18 19 -10 -1 -16 2 -13 6 2 4 -2 16 -10 26 -8 11 -14 14 -15 7 0 -7 -4
-13 -9 -13 -5 0 -7 12 -5 28 15 101 4 154 -23 120z m-10 -96 c-3 -12 -9 -22
-14 -22 -12 0 -11 7 2 32 13 25 20 19 12 -10z"/>
<path d="M1052 360 c0 -14 2 -19 5 -12 2 6 2 18 0 25 -3 6 -5 1 -5 -13z"/>
<path d="M1110 366 c0 -23 16 -27 17 -5 1 10 -2 19 -8 19 -5 0 -9 -6 -9 -14z"/>
<path d="M1078 343 c7 -3 16 -2 19 1 4 3 -2 6 -13 5 -11 0 -14 -3 -6 -6z"/>
<path d="M935 320 c-3 -5 1 -10 10 -10 9 0 13 5 10 10 -3 6 -8 10 -10 10 -2 0
-7 -4 -10 -10z"/>
<path d="M976 285 c4 -8 11 -15 16 -15 6 0 5 6 -2 15 -7 8 -14 15 -16 15 -2 0
-1 -7 2 -15z"/>
</g>
</svg>
